<?xml version="1.0" encoding="UTF-8"?>
<svg width="80px" height="78px" viewBox="0 0 80 78" version="1.1" xmlns="http://www.w3.org/2000/svg" xmlns:xlink="http://www.w3.org/1999/xlink">
    <!-- Generator: Sketch 48.2 (47327) - http://www.bohemiancoding.com/sketch -->
    <title>refresh-update</title>
    <desc>Created with Sketch.</desc>
    <defs>
        <circle id="path-1" cx="59" cy="9" r="3"></circle>
        <circle id="path-2" cx="32" cy="3" r="3"></circle>
        <circle id="path-3" cx="21" cy="70" r="3"></circle>
        <circle id="path-4" cx="49" cy="73" r="3"></circle>
        <circle id="path-5" cx="19.5" cy="53" r="3"></circle>
        <circle id="path-6" cx="3" cy="67" r="3"></circle>
        <circle id="path-7" cx="59" cy="25" r="3"></circle>
        <circle id="path-8" cx="75" cy="12" r="3"></circle>
    </defs>
    <g id="Artboard" stroke="none" stroke-width="1" fill="none" fill-rule="evenodd" transform="translate(-187.000000, -150.000000)">
        <g id="refresh-update" transform="translate(188.000000, 151.000000)">
            <polyline id="Stroke-1" stroke="#DE0760" stroke-width="2" stroke-linecap="round" stroke-linejoin="round" points="76 11.874724 58 8 59.6400326 28"></polyline>
            <polyline id="Stroke-2" stroke="#DE0760" stroke-width="2" stroke-linecap="round" stroke-linejoin="round" points="3 66.4251004 21 70 19.3117919 51"></polyline>
            <path d="M58.0629939,8 C68.2236917,14.3265413 75,25.6131514 75,38.4927211 C75,54.9011699 64.0045769,68.7386438 49,73" id="Stroke-4" stroke="#DE0760" stroke-width="2" stroke-linecap="round" stroke-linejoin="round"></path>
            <path d="M20.0719908,69 C9.82044631,62.6482484 3,51.2955358 3,38.3567826 C3,20.8585215 15.4618925,6.2785166 32,3" id="Stroke-6" stroke="#DE0760" stroke-width="2" stroke-linecap="round" stroke-linejoin="round"></path>
            <g id="Oval-Copy-29" transform="translate(59.000000, 9.000000) rotate(-90.000000) translate(-59.000000, -9.000000) ">
                <use fill="#BABABA" fill-rule="evenodd" xlink:href="#path-1"></use>
                <circle stroke="#2D2E3B" stroke-width="1.5" cx="59" cy="9" r="2.25"></circle>
                <use stroke="#2D2E3B" stroke-width="1" xlink:href="#path-1"></use>
            </g>
            <g id="Oval-Copy-30" transform="translate(32.000000, 3.000000) rotate(-90.000000) translate(-32.000000, -3.000000) ">
                <use fill="#BABABA" fill-rule="evenodd" xlink:href="#path-2"></use>
                <circle stroke="#2D2E3B" stroke-width="1.5" cx="32" cy="3" r="2.25"></circle>
                <use stroke="#2D2E3B" stroke-width="1" xlink:href="#path-2"></use>
            </g>
            <g id="Oval-Copy-31" transform="translate(21.000000, 70.000000) rotate(-90.000000) translate(-21.000000, -70.000000) ">
                <use fill="#BABABA" fill-rule="evenodd" xlink:href="#path-3"></use>
                <circle stroke="#2D2E3B" stroke-width="1.5" cx="21" cy="70" r="2.25"></circle>
                <use stroke="#2D2E3B" stroke-width="1" xlink:href="#path-3"></use>
            </g>
            <g id="Oval-Copy-32" transform="translate(49.000000, 73.000000) rotate(-90.000000) translate(-49.000000, -73.000000) ">
                <use fill="#BABABA" fill-rule="evenodd" xlink:href="#path-4"></use>
                <circle stroke="#2D2E3B" stroke-width="1.5" cx="49" cy="73" r="2.25"></circle>
                <use stroke="#2D2E3B" stroke-width="1" xlink:href="#path-4"></use>
            </g>
            <g id="Oval-Copy-33" transform="translate(19.500000, 53.000000) rotate(-90.000000) translate(-19.500000, -53.000000) ">
                <use fill="#BABABA" fill-rule="evenodd" xlink:href="#path-5"></use>
                <circle stroke="#2D2E3B" stroke-width="1.5" cx="19.5" cy="53" r="2.25"></circle>
                <use stroke="#2D2E3B" stroke-width="1" xlink:href="#path-5"></use>
            </g>
            <g id="Oval-Copy-34" transform="translate(3.000000, 67.000000) rotate(-90.000000) translate(-3.000000, -67.000000) ">
                <use fill="#BABABA" fill-rule="evenodd" xlink:href="#path-6"></use>
                <circle stroke="#2D2E3B" stroke-width="1.5" cx="3" cy="67" r="2.25"></circle>
                <use stroke="#2D2E3B" stroke-width="1" xlink:href="#path-6"></use>
            </g>
            <g id="Oval-Copy-35" transform="translate(59.000000, 25.000000) rotate(-90.000000) translate(-59.000000, -25.000000) ">
                <use fill="#BABABA" fill-rule="evenodd" xlink:href="#path-7"></use>
                <circle stroke="#2D2E3B" stroke-width="1.5" cx="59" cy="25" r="2.25"></circle>
                <use stroke="#2D2E3B" stroke-width="1" xlink:href="#path-7"></use>
            </g>
            <g id="Oval-Copy-36" transform="translate(75.000000, 12.000000) rotate(-90.000000) translate(-75.000000, -12.000000) ">
                <use fill="#BABABA" fill-rule="evenodd" xlink:href="#path-8"></use>
                <circle stroke="#2D2E3B" stroke-width="1.5" cx="75" cy="12" r="2.25"></circle>
                <use stroke="#2D2E3B" stroke-width="1" xlink:href="#path-8"></use>
            </g>
        </g>
    </g>
</svg>